# xmcd
#
# Track frame offsets:
#	150
#	17701
#	31130
#	44106
#	57615
#	69177
#	86237
#	108196
#	120267
#	136672
#	155697
#	171216
#	188947
#	210857
#
# Disc length: 3035 seconds
#
# Revision: 1
# Processed by: cddbd v1.5.2PL0 Copyright (c) Steve Scherf et al.
# Submitted via: audiograbber 1.83.01
#
DISCID=b80bd90e
DTITLE=Rhonda Vincent And The Rage - All The Rage-In Concert, Vol. 1
DYEAR=2016
DGENRE=Bluegrass
TTITLE0=Muleskinner Blues
TTITLE1=Is The Grass Any Bluer (On The Other Side)
TTITLE2=Girl From West Virginia
TTITLE3=Midnight Angel
TTITLE4=Wow Baby
TTITLE5=If We Would Just Pray
TTITLE6=Freeborn Man
TTITLE7=All About The Banjo
TTITLE8=Missouri Moon
TTITLE9=I've Forgotten You
TTITLE10=You Don't Love God (If You Don't Love Your Neighbor)
TTITLE11=Kentucky Borderline
TTITLE12=The Old Rugged Cross
TTITLE13=Run Mississippi
EXTD=
EXTT0=
EXTT1=
EXTT2=
EXTT3=
EXTT4=
EXTT5=
EXTT6=
EXTT7=
EXTT8=
EXTT9=
EXTT10=
EXTT11=
EXTT12=
EXTT13=
PLAYORDER=
